<svg height="512" viewBox="0 0 512 512" width="512" xmlns="http://www.w3.org/2000/svg"><g id="outline"><path d="m261.8 16.1c-45.722-1.561-89.176 15.228-122.346 47.258-33.137 32-51.411 74.781-51.458 120.468a168.155 168.155 0 0 0 38.94 107.72 395.542 395.542 0 0 1 61.876 102.054 23.944 23.944 0 0 0 1.319 30.4 23.949 23.949 0 0 0 1.917 33.911 40.049 40.049 0 0 0 39.952 38.089h48a40.049 40.049 0 0 0 39.952-38.089 23.949 23.949 0 0 0 1.917-33.911 23.943 23.943 0 0 0 1.319-30.4 397.108 397.108 0 0 1 61.95-102.151 168 168 0 0 0 -123.338-275.349zm-24 367.9-27.35-191.419 9.112 6.075a8 8 0 0 0 12.028-4.126l3.171-9.515 14.839 19.785a8 8 0 0 0 12.8 0l14.839-19.785 3.171 9.515a8 8 0 0 0 12.028 4.126l9.112-6.075-27.35 191.419zm66.2 16a8 8 0 0 1 0 16h-96a8 8 0 0 1 0-16zm8 40a8.009 8.009 0 0 1 -8 8h-96a8 8 0 0 1 0-16h96a8.009 8.009 0 0 1 8 8zm-32 40h-48a24.039 24.039 0 0 1 -22.624-16h93.248a24.039 24.039 0 0 1 -22.624 16zm92.845-198.789a413.354 413.354 0 0 0 -63.273 103.449c-1.789-.427-19.2-.66-19.2-.66l29.548-206.868a8 8 0 0 0 -12.358-7.788l-15.285 10.189-4.687-14.063a8 8 0 0 0 -13.99-2.27l-17.6 23.467-17.6-23.467a8 8 0 0 0 -13.99 2.27l-4.687 14.063-15.285-10.189a8 8 0 0 0 -12.358 7.788l29.553 206.868s-17.415.232-19.2.66a411.709 411.709 0 0 0 -63.2-103.365 152.128 152.128 0 0 1 -35.233-97.454 152 152 0 0 1 304 .159 152.144 152.144 0 0 1 -35.155 97.211z"/><path d="m326.424 77.478-11.273-4.832a8 8 0 1 0 -6.3 14.708l11.272 4.831a80.643 80.643 0 0 1 47.987 61.13 8 8 0 0 0 7.88 6.685 8.185 8.185 0 0 0 1.325-.109 8 8 0 0 0 6.577-9.207 96.586 96.586 0 0 0 -57.468-73.206z"/><path d="m376 168a8 8 0 0 0 -8 8v8a8 8 0 0 0 16 0v-8a8 8 0 0 0 -8-8z"/></g></svg>